<svg xmlns="http://www.w3.org/2000/svg" width="100" height="100" viewBox="0 0 100 100">
  <g fill="#000000">
    <!-- Row 1 -->
    <path d="M-10,30 A20,20 0 0,1 10,30 A20,20 0 0,1 30,30 A20,20 0 0,1 50,30 A20,20 0 0,1 70,30 A20,20 0 0,1 90,30 A20,20 0 0,1 110,30 L110,50 L-10,50 Z" />
    
    <!-- Row 2 -->
    <path d="M-10,70 A20,20 0 0,1 10,70 A20,20 0 0,1 30,70 A20,20 0 0,1 50,70 A20,20 0 0,1 70,70 A20,20 0 0,1 90,70 A20,20 0 0,1 110,70 L110,90 L-10,90 Z" />
    
    <!-- Row 3 -->
    <path d="M-30,110 A20,20 0 0,1 -10,110 A20,20 0 0,1 10,110 A20,20 0 0,1 30,110 A20,20 0 0,1 50,110 A20,20 0 0,1 70,110 A20,20 0 0,1 90,110 L90,130 L-30,130 Z" />
    
    <!-- Smaller arc patterns -->
    <path d="M10,10 A10,10 0 0,1 20,20 A10,10 0 0,1 10,30 A10,10 0 0,1 0,20 A10,10 0 0,1 10,10" />
    <path d="M50,10 A10,10 0 0,1 60,20 A10,10 0 0,1 50,30 A10,10 0 0,1 40,20 A10,10 0 0,1 50,10" />
    <path d="M90,10 A10,10 0 0,1 100,20 A10,10 0 0,1 90,30 A10,10 0 0,1 80,20 A10,10 0 0,1 90,10" />
    
    <path d="M30,50 A10,10 0 0,1 40,60 A10,10 0 0,1 30,70 A10,10 0 0,1 20,60 A10,10 0 0,1 30,50" />
    <path d="M70,50 A10,10 0 0,1 80,60 A10,10 0 0,1 70,70 A10,10 0 0,1 60,60 A10,10 0 0,1 70,50" />
  </g>
</svg> 